<mxfile host="app.diagrams.net" modified="2023-05-31T15:23:16.773Z" agent="Mozilla/5.0 (X11; Linux x86_64; rv:109.0) Gecko/20100101 Firefox/113.0" etag="TK5_Kz8jsdoKteRBs2My" version="21.3.6" type="device">
  <diagram name="Page-1" id="CNwOio5GRXq8v3MvtZJz">
    <mxGraphModel dx="444" dy="720" grid="1" gridSize="10" guides="1" tooltips="1" connect="1" arrows="1" fold="1" page="1" pageScale="1" pageWidth="827" pageHeight="1169" math="0" shadow="0">
      <root>
        <mxCell id="0" />
        <mxCell id="1" parent="0" />
        <mxCell id="NkOKxSfDtnygiUtwnVIV-4" style="edgeStyle=none;rounded=0;orthogonalLoop=1;jettySize=auto;html=1;exitX=1;exitY=0.5;exitDx=0;exitDy=0;entryX=0.5;entryY=0;entryDx=0;entryDy=0;fontSize=12;startSize=8;endSize=8;" edge="1" parent="1" source="NkOKxSfDtnygiUtwnVIV-1" target="NkOKxSfDtnygiUtwnVIV-2">
          <mxGeometry relative="1" as="geometry">
            <Array as="points">
              <mxPoint x="530" y="60" />
            </Array>
          </mxGeometry>
        </mxCell>
        <mxCell id="NkOKxSfDtnygiUtwnVIV-6" style="edgeStyle=none;curved=1;rounded=0;orthogonalLoop=1;jettySize=auto;html=1;exitX=0.5;exitY=1;exitDx=0;exitDy=0;entryX=0.5;entryY=0;entryDx=0;entryDy=0;fontSize=12;startSize=8;endSize=8;" edge="1" parent="1" source="NkOKxSfDtnygiUtwnVIV-1" target="NkOKxSfDtnygiUtwnVIV-5">
          <mxGeometry relative="1" as="geometry" />
        </mxCell>
        <mxCell id="NkOKxSfDtnygiUtwnVIV-1" value="1,2" style="ellipse;whiteSpace=wrap;html=1;aspect=fixed;fontSize=16;" vertex="1" parent="1">
          <mxGeometry x="400" y="40" width="40" height="40" as="geometry" />
        </mxCell>
        <mxCell id="NkOKxSfDtnygiUtwnVIV-2" value="3" style="ellipse;whiteSpace=wrap;html=1;aspect=fixed;fontSize=16;" vertex="1" parent="1">
          <mxGeometry x="510" y="120" width="40" height="40" as="geometry" />
        </mxCell>
        <mxCell id="NkOKxSfDtnygiUtwnVIV-8" style="edgeStyle=none;rounded=0;orthogonalLoop=1;jettySize=auto;html=1;exitX=1;exitY=0.5;exitDx=0;exitDy=0;entryX=0.5;entryY=0;entryDx=0;entryDy=0;fontSize=12;startSize=8;endSize=8;" edge="1" parent="1" source="NkOKxSfDtnygiUtwnVIV-5" target="NkOKxSfDtnygiUtwnVIV-7">
          <mxGeometry relative="1" as="geometry">
            <mxPoint x="459.9999999999984" y="140" as="sourcePoint" />
            <Array as="points">
              <mxPoint x="480" y="140" />
            </Array>
          </mxGeometry>
        </mxCell>
        <mxCell id="NkOKxSfDtnygiUtwnVIV-15" style="edgeStyle=none;curved=1;rounded=0;orthogonalLoop=1;jettySize=auto;html=1;exitX=0.5;exitY=1;exitDx=0;exitDy=0;entryX=0.5;entryY=0;entryDx=0;entryDy=0;fontSize=12;startSize=8;endSize=8;" edge="1" parent="1" source="NkOKxSfDtnygiUtwnVIV-5" target="NkOKxSfDtnygiUtwnVIV-14">
          <mxGeometry relative="1" as="geometry" />
        </mxCell>
        <mxCell id="NkOKxSfDtnygiUtwnVIV-5" value="4" style="ellipse;whiteSpace=wrap;html=1;aspect=fixed;fontSize=16;" vertex="1" parent="1">
          <mxGeometry x="400" y="120" width="40" height="40" as="geometry" />
        </mxCell>
        <mxCell id="NkOKxSfDtnygiUtwnVIV-16" style="edgeStyle=none;rounded=0;orthogonalLoop=1;jettySize=auto;html=1;exitX=0.5;exitY=1;exitDx=0;exitDy=0;entryX=1;entryY=0.5;entryDx=0;entryDy=0;fontSize=12;startSize=8;endSize=8;" edge="1" parent="1" source="NkOKxSfDtnygiUtwnVIV-7" target="NkOKxSfDtnygiUtwnVIV-14">
          <mxGeometry relative="1" as="geometry">
            <Array as="points">
              <mxPoint x="480" y="220" />
            </Array>
          </mxGeometry>
        </mxCell>
        <mxCell id="NkOKxSfDtnygiUtwnVIV-7" value="5" style="ellipse;whiteSpace=wrap;html=1;aspect=fixed;fontSize=16;" vertex="1" parent="1">
          <mxGeometry x="460" y="160" width="40" height="40" as="geometry" />
        </mxCell>
        <mxCell id="NkOKxSfDtnygiUtwnVIV-9" value="&lt;div&gt;T&lt;/div&gt;" style="text;html=1;strokeColor=none;fillColor=none;align=center;verticalAlign=middle;whiteSpace=wrap;rounded=0;fontSize=16;" vertex="1" parent="1">
          <mxGeometry x="420" y="30" width="60" height="30" as="geometry" />
        </mxCell>
        <mxCell id="NkOKxSfDtnygiUtwnVIV-10" value="F" style="text;html=1;align=center;verticalAlign=middle;resizable=0;points=[];autosize=1;strokeColor=none;fillColor=none;fontSize=16;" vertex="1" parent="1">
          <mxGeometry x="398" y="80" width="30" height="30" as="geometry" />
        </mxCell>
        <mxCell id="NkOKxSfDtnygiUtwnVIV-11" value="&lt;div&gt;T&lt;/div&gt;" style="text;html=1;align=center;verticalAlign=middle;resizable=0;points=[];autosize=1;strokeColor=none;fillColor=none;fontSize=16;" vertex="1" parent="1">
          <mxGeometry x="430" y="110" width="30" height="30" as="geometry" />
        </mxCell>
        <mxCell id="NkOKxSfDtnygiUtwnVIV-19" style="edgeStyle=none;rounded=0;orthogonalLoop=1;jettySize=auto;html=1;exitX=0.5;exitY=1;exitDx=0;exitDy=0;entryX=0.5;entryY=0;entryDx=0;entryDy=0;fontSize=12;startSize=8;endSize=8;" edge="1" parent="1" source="NkOKxSfDtnygiUtwnVIV-14" target="NkOKxSfDtnygiUtwnVIV-18">
          <mxGeometry relative="1" as="geometry">
            <Array as="points">
              <mxPoint x="580" y="240" />
            </Array>
          </mxGeometry>
        </mxCell>
        <mxCell id="NkOKxSfDtnygiUtwnVIV-22" style="edgeStyle=none;curved=1;rounded=0;orthogonalLoop=1;jettySize=auto;html=1;exitX=0.5;exitY=1;exitDx=0;exitDy=0;entryX=0.5;entryY=0;entryDx=0;entryDy=0;fontSize=12;startSize=8;endSize=8;" edge="1" parent="1" source="NkOKxSfDtnygiUtwnVIV-14" target="NkOKxSfDtnygiUtwnVIV-21">
          <mxGeometry relative="1" as="geometry" />
        </mxCell>
        <mxCell id="NkOKxSfDtnygiUtwnVIV-14" value="6" style="ellipse;whiteSpace=wrap;html=1;aspect=fixed;fontSize=16;" vertex="1" parent="1">
          <mxGeometry x="400" y="200" width="40" height="40" as="geometry" />
        </mxCell>
        <mxCell id="NkOKxSfDtnygiUtwnVIV-17" value="&lt;div&gt;F&lt;/div&gt;" style="text;html=1;align=center;verticalAlign=middle;resizable=0;points=[];autosize=1;strokeColor=none;fillColor=none;fontSize=16;" vertex="1" parent="1">
          <mxGeometry x="395" y="158" width="30" height="30" as="geometry" />
        </mxCell>
        <mxCell id="NkOKxSfDtnygiUtwnVIV-50" style="edgeStyle=none;curved=1;rounded=0;orthogonalLoop=1;jettySize=auto;html=1;exitX=0.5;exitY=1;exitDx=0;exitDy=0;entryX=0.5;entryY=0;entryDx=0;entryDy=0;fontSize=12;startSize=8;endSize=8;" edge="1" parent="1" source="NkOKxSfDtnygiUtwnVIV-18" target="NkOKxSfDtnygiUtwnVIV-49">
          <mxGeometry relative="1" as="geometry" />
        </mxCell>
        <mxCell id="NkOKxSfDtnygiUtwnVIV-18" value="14" style="ellipse;whiteSpace=wrap;html=1;aspect=fixed;fontSize=16;" vertex="1" parent="1">
          <mxGeometry x="560" y="280" width="40" height="40" as="geometry" />
        </mxCell>
        <mxCell id="NkOKxSfDtnygiUtwnVIV-20" value="F" style="text;html=1;align=center;verticalAlign=middle;resizable=0;points=[];autosize=1;strokeColor=none;fillColor=none;fontSize=16;" vertex="1" parent="1">
          <mxGeometry x="580" y="240" width="30" height="30" as="geometry" />
        </mxCell>
        <mxCell id="NkOKxSfDtnygiUtwnVIV-25" style="edgeStyle=none;curved=1;rounded=0;orthogonalLoop=1;jettySize=auto;html=1;exitX=0.5;exitY=1;exitDx=0;exitDy=0;entryX=0.5;entryY=0;entryDx=0;entryDy=0;fontSize=12;startSize=8;endSize=8;" edge="1" parent="1" source="NkOKxSfDtnygiUtwnVIV-21" target="NkOKxSfDtnygiUtwnVIV-24">
          <mxGeometry relative="1" as="geometry" />
        </mxCell>
        <mxCell id="NkOKxSfDtnygiUtwnVIV-21" value="7" style="ellipse;whiteSpace=wrap;html=1;aspect=fixed;fontSize=16;" vertex="1" parent="1">
          <mxGeometry x="400" y="280" width="40" height="40" as="geometry" />
        </mxCell>
        <mxCell id="NkOKxSfDtnygiUtwnVIV-23" value="T" style="text;html=1;align=center;verticalAlign=middle;resizable=0;points=[];autosize=1;strokeColor=none;fillColor=none;fontSize=16;" vertex="1" parent="1">
          <mxGeometry x="398" y="240" width="30" height="30" as="geometry" />
        </mxCell>
        <mxCell id="NkOKxSfDtnygiUtwnVIV-27" style="edgeStyle=none;curved=1;rounded=0;orthogonalLoop=1;jettySize=auto;html=1;exitX=0.5;exitY=1;exitDx=0;exitDy=0;entryX=0.5;entryY=0;entryDx=0;entryDy=0;fontSize=12;startSize=8;endSize=8;" edge="1" parent="1" source="NkOKxSfDtnygiUtwnVIV-24" target="NkOKxSfDtnygiUtwnVIV-26">
          <mxGeometry relative="1" as="geometry" />
        </mxCell>
        <mxCell id="NkOKxSfDtnygiUtwnVIV-24" value="8" style="ellipse;whiteSpace=wrap;html=1;aspect=fixed;fontSize=16;" vertex="1" parent="1">
          <mxGeometry x="400" y="350" width="40" height="40" as="geometry" />
        </mxCell>
        <mxCell id="NkOKxSfDtnygiUtwnVIV-29" style="edgeStyle=none;curved=1;rounded=0;orthogonalLoop=1;jettySize=auto;html=1;exitX=0.5;exitY=1;exitDx=0;exitDy=0;entryX=0.5;entryY=0;entryDx=0;entryDy=0;fontSize=12;startSize=8;endSize=8;" edge="1" parent="1" source="NkOKxSfDtnygiUtwnVIV-26" target="NkOKxSfDtnygiUtwnVIV-28">
          <mxGeometry relative="1" as="geometry" />
        </mxCell>
        <mxCell id="NkOKxSfDtnygiUtwnVIV-26" value="9" style="ellipse;whiteSpace=wrap;html=1;aspect=fixed;fontSize=16;" vertex="1" parent="1">
          <mxGeometry x="400" y="420" width="40" height="40" as="geometry" />
        </mxCell>
        <mxCell id="NkOKxSfDtnygiUtwnVIV-32" style="edgeStyle=none;rounded=0;orthogonalLoop=1;jettySize=auto;html=1;exitX=1;exitY=0.5;exitDx=0;exitDy=0;entryX=0.5;entryY=0;entryDx=0;entryDy=0;fontSize=12;startSize=8;endSize=8;" edge="1" parent="1" source="NkOKxSfDtnygiUtwnVIV-28" target="NkOKxSfDtnygiUtwnVIV-31">
          <mxGeometry relative="1" as="geometry">
            <Array as="points">
              <mxPoint x="500" y="510" />
            </Array>
          </mxGeometry>
        </mxCell>
        <mxCell id="NkOKxSfDtnygiUtwnVIV-35" style="edgeStyle=none;curved=1;rounded=0;orthogonalLoop=1;jettySize=auto;html=1;exitX=0.5;exitY=1;exitDx=0;exitDy=0;entryX=0.5;entryY=0;entryDx=0;entryDy=0;fontSize=12;startSize=8;endSize=8;" edge="1" parent="1" source="NkOKxSfDtnygiUtwnVIV-28" target="NkOKxSfDtnygiUtwnVIV-30">
          <mxGeometry relative="1" as="geometry" />
        </mxCell>
        <mxCell id="NkOKxSfDtnygiUtwnVIV-28" value="10" style="ellipse;whiteSpace=wrap;html=1;aspect=fixed;fontSize=16;" vertex="1" parent="1">
          <mxGeometry x="400" y="490" width="40" height="40" as="geometry" />
        </mxCell>
        <mxCell id="NkOKxSfDtnygiUtwnVIV-45" style="edgeStyle=none;rounded=0;orthogonalLoop=1;jettySize=auto;html=1;exitX=0;exitY=0.5;exitDx=0;exitDy=0;entryX=0;entryY=0.5;entryDx=0;entryDy=0;fontSize=12;startSize=8;endSize=8;" edge="1" parent="1" source="NkOKxSfDtnygiUtwnVIV-30" target="NkOKxSfDtnygiUtwnVIV-24">
          <mxGeometry relative="1" as="geometry">
            <Array as="points">
              <mxPoint x="320" y="580" />
              <mxPoint x="320" y="370" />
            </Array>
          </mxGeometry>
        </mxCell>
        <mxCell id="NkOKxSfDtnygiUtwnVIV-46" style="edgeStyle=none;curved=1;rounded=0;orthogonalLoop=1;jettySize=auto;html=1;exitX=0.5;exitY=1;exitDx=0;exitDy=0;entryX=0.5;entryY=0;entryDx=0;entryDy=0;fontSize=12;startSize=8;endSize=8;" edge="1" parent="1" source="NkOKxSfDtnygiUtwnVIV-30" target="NkOKxSfDtnygiUtwnVIV-38">
          <mxGeometry relative="1" as="geometry" />
        </mxCell>
        <mxCell id="NkOKxSfDtnygiUtwnVIV-30" value="12" style="ellipse;whiteSpace=wrap;html=1;aspect=fixed;fontSize=16;" vertex="1" parent="1">
          <mxGeometry x="400" y="560" width="40" height="40" as="geometry" />
        </mxCell>
        <mxCell id="NkOKxSfDtnygiUtwnVIV-34" style="edgeStyle=none;rounded=0;orthogonalLoop=1;jettySize=auto;html=1;exitX=0.5;exitY=1;exitDx=0;exitDy=0;entryX=1;entryY=0.5;entryDx=0;entryDy=0;fontSize=12;startSize=8;endSize=8;" edge="1" parent="1" source="NkOKxSfDtnygiUtwnVIV-31" target="NkOKxSfDtnygiUtwnVIV-30">
          <mxGeometry relative="1" as="geometry">
            <Array as="points">
              <mxPoint x="500" y="580" />
            </Array>
          </mxGeometry>
        </mxCell>
        <mxCell id="NkOKxSfDtnygiUtwnVIV-31" value="11" style="ellipse;whiteSpace=wrap;html=1;aspect=fixed;fontSize=16;" vertex="1" parent="1">
          <mxGeometry x="480" y="530" width="40" height="40" as="geometry" />
        </mxCell>
        <mxCell id="NkOKxSfDtnygiUtwnVIV-33" value="&lt;div&gt;T&lt;/div&gt;" style="text;html=1;align=center;verticalAlign=middle;resizable=0;points=[];autosize=1;strokeColor=none;fillColor=none;fontSize=16;" vertex="1" parent="1">
          <mxGeometry x="465" y="488" width="30" height="30" as="geometry" />
        </mxCell>
        <mxCell id="NkOKxSfDtnygiUtwnVIV-36" value="F" style="text;html=1;align=center;verticalAlign=middle;resizable=0;points=[];autosize=1;strokeColor=none;fillColor=none;fontSize=16;" vertex="1" parent="1">
          <mxGeometry x="395" y="530" width="30" height="30" as="geometry" />
        </mxCell>
        <mxCell id="NkOKxSfDtnygiUtwnVIV-48" style="edgeStyle=none;rounded=0;orthogonalLoop=1;jettySize=auto;html=1;exitX=1;exitY=0.5;exitDx=0;exitDy=0;entryX=0;entryY=0.5;entryDx=0;entryDy=0;fontSize=12;startSize=8;endSize=8;" edge="1" parent="1" source="NkOKxSfDtnygiUtwnVIV-38" target="NkOKxSfDtnygiUtwnVIV-18">
          <mxGeometry relative="1" as="geometry">
            <Array as="points">
              <mxPoint x="540" y="660" />
              <mxPoint x="540" y="300" />
            </Array>
          </mxGeometry>
        </mxCell>
        <mxCell id="NkOKxSfDtnygiUtwnVIV-38" value="13" style="ellipse;whiteSpace=wrap;html=1;aspect=fixed;fontSize=16;" vertex="1" parent="1">
          <mxGeometry x="400" y="640" width="40" height="40" as="geometry" />
        </mxCell>
        <mxCell id="NkOKxSfDtnygiUtwnVIV-43" value="&lt;div&gt;T&lt;/div&gt;&lt;div&gt;&lt;br&gt;&lt;/div&gt;" style="text;html=1;align=center;verticalAlign=middle;resizable=0;points=[];autosize=1;strokeColor=none;fillColor=none;fontSize=16;" vertex="1" parent="1">
          <mxGeometry x="414" y="610" width="30" height="50" as="geometry" />
        </mxCell>
        <mxCell id="NkOKxSfDtnygiUtwnVIV-47" value="F" style="text;html=1;align=center;verticalAlign=middle;resizable=0;points=[];autosize=1;strokeColor=none;fillColor=none;fontSize=16;" vertex="1" parent="1">
          <mxGeometry x="320" y="550" width="30" height="30" as="geometry" />
        </mxCell>
        <mxCell id="NkOKxSfDtnygiUtwnVIV-52" style="edgeStyle=none;curved=1;rounded=0;orthogonalLoop=1;jettySize=auto;html=1;exitX=0.5;exitY=1;exitDx=0;exitDy=0;entryX=0.5;entryY=0;entryDx=0;entryDy=0;fontSize=12;startSize=8;endSize=8;" edge="1" parent="1" source="NkOKxSfDtnygiUtwnVIV-49" target="NkOKxSfDtnygiUtwnVIV-51">
          <mxGeometry relative="1" as="geometry" />
        </mxCell>
        <mxCell id="NkOKxSfDtnygiUtwnVIV-49" value="15" style="ellipse;whiteSpace=wrap;html=1;aspect=fixed;fontSize=16;" vertex="1" parent="1">
          <mxGeometry x="560" y="360" width="40" height="40" as="geometry" />
        </mxCell>
        <mxCell id="NkOKxSfDtnygiUtwnVIV-54" style="edgeStyle=none;curved=1;rounded=0;orthogonalLoop=1;jettySize=auto;html=1;exitX=0.5;exitY=1;exitDx=0;exitDy=0;entryX=0.5;entryY=0;entryDx=0;entryDy=0;fontSize=12;startSize=8;endSize=8;" edge="1" parent="1" source="NkOKxSfDtnygiUtwnVIV-51" target="NkOKxSfDtnygiUtwnVIV-53">
          <mxGeometry relative="1" as="geometry" />
        </mxCell>
        <mxCell id="NkOKxSfDtnygiUtwnVIV-51" value="16" style="ellipse;whiteSpace=wrap;html=1;aspect=fixed;fontSize=16;" vertex="1" parent="1">
          <mxGeometry x="560" y="440" width="40" height="40" as="geometry" />
        </mxCell>
        <mxCell id="NkOKxSfDtnygiUtwnVIV-57" style="edgeStyle=none;curved=1;rounded=0;orthogonalLoop=1;jettySize=auto;html=1;exitX=0.5;exitY=1;exitDx=0;exitDy=0;fontSize=12;startSize=8;endSize=8;" edge="1" parent="1" source="NkOKxSfDtnygiUtwnVIV-53" target="NkOKxSfDtnygiUtwnVIV-55">
          <mxGeometry relative="1" as="geometry" />
        </mxCell>
        <mxCell id="NkOKxSfDtnygiUtwnVIV-58" style="edgeStyle=none;rounded=0;orthogonalLoop=1;jettySize=auto;html=1;exitX=1;exitY=0.5;exitDx=0;exitDy=0;entryX=0.5;entryY=0;entryDx=0;entryDy=0;fontSize=12;startSize=8;endSize=8;" edge="1" parent="1" source="NkOKxSfDtnygiUtwnVIV-53" target="NkOKxSfDtnygiUtwnVIV-56">
          <mxGeometry relative="1" as="geometry">
            <Array as="points">
              <mxPoint x="660" y="540" />
            </Array>
          </mxGeometry>
        </mxCell>
        <mxCell id="NkOKxSfDtnygiUtwnVIV-53" value="17" style="ellipse;whiteSpace=wrap;html=1;aspect=fixed;fontSize=16;" vertex="1" parent="1">
          <mxGeometry x="560" y="520" width="40" height="40" as="geometry" />
        </mxCell>
        <mxCell id="NkOKxSfDtnygiUtwnVIV-62" style="edgeStyle=none;curved=1;rounded=0;orthogonalLoop=1;jettySize=auto;html=1;exitX=0.5;exitY=1;exitDx=0;exitDy=0;entryX=0.5;entryY=0;entryDx=0;entryDy=0;fontSize=12;startSize=8;endSize=8;" edge="1" parent="1" source="NkOKxSfDtnygiUtwnVIV-55" target="NkOKxSfDtnygiUtwnVIV-61">
          <mxGeometry relative="1" as="geometry" />
        </mxCell>
        <mxCell id="NkOKxSfDtnygiUtwnVIV-55" value="19" style="ellipse;whiteSpace=wrap;html=1;aspect=fixed;fontSize=16;" vertex="1" parent="1">
          <mxGeometry x="560" y="600" width="40" height="40" as="geometry" />
        </mxCell>
        <mxCell id="NkOKxSfDtnygiUtwnVIV-56" value="18" style="ellipse;whiteSpace=wrap;html=1;aspect=fixed;fontSize=16;" vertex="1" parent="1">
          <mxGeometry x="640" y="600" width="40" height="40" as="geometry" />
        </mxCell>
        <mxCell id="NkOKxSfDtnygiUtwnVIV-59" value="&lt;div&gt;T&lt;/div&gt;" style="text;html=1;align=center;verticalAlign=middle;resizable=0;points=[];autosize=1;strokeColor=none;fillColor=none;fontSize=16;" vertex="1" parent="1">
          <mxGeometry x="620" y="518" width="30" height="30" as="geometry" />
        </mxCell>
        <mxCell id="NkOKxSfDtnygiUtwnVIV-60" value="F" style="text;html=1;align=center;verticalAlign=middle;resizable=0;points=[];autosize=1;strokeColor=none;fillColor=none;fontSize=16;" vertex="1" parent="1">
          <mxGeometry x="580" y="560" width="30" height="30" as="geometry" />
        </mxCell>
        <mxCell id="NkOKxSfDtnygiUtwnVIV-64" style="edgeStyle=none;curved=1;rounded=0;orthogonalLoop=1;jettySize=auto;html=1;exitX=0.5;exitY=1;exitDx=0;exitDy=0;entryX=0.5;entryY=0;entryDx=0;entryDy=0;fontSize=12;startSize=8;endSize=8;" edge="1" parent="1" source="NkOKxSfDtnygiUtwnVIV-61" target="NkOKxSfDtnygiUtwnVIV-63">
          <mxGeometry relative="1" as="geometry" />
        </mxCell>
        <mxCell id="NkOKxSfDtnygiUtwnVIV-67" style="edgeStyle=none;rounded=0;orthogonalLoop=1;jettySize=auto;html=1;exitX=1;exitY=0.5;exitDx=0;exitDy=0;entryX=0.5;entryY=0;entryDx=0;entryDy=0;fontSize=12;startSize=8;endSize=8;" edge="1" parent="1" source="NkOKxSfDtnygiUtwnVIV-61" target="NkOKxSfDtnygiUtwnVIV-66">
          <mxGeometry relative="1" as="geometry">
            <Array as="points">
              <mxPoint x="710" y="700" />
            </Array>
          </mxGeometry>
        </mxCell>
        <mxCell id="NkOKxSfDtnygiUtwnVIV-61" value="20" style="ellipse;whiteSpace=wrap;html=1;aspect=fixed;fontSize=16;" vertex="1" parent="1">
          <mxGeometry x="560" y="680" width="40" height="40" as="geometry" />
        </mxCell>
        <mxCell id="NkOKxSfDtnygiUtwnVIV-70" style="edgeStyle=none;curved=1;rounded=0;orthogonalLoop=1;jettySize=auto;html=1;exitX=0.5;exitY=1;exitDx=0;exitDy=0;entryX=0.5;entryY=0;entryDx=0;entryDy=0;fontSize=12;startSize=8;endSize=8;" edge="1" parent="1" source="NkOKxSfDtnygiUtwnVIV-63" target="NkOKxSfDtnygiUtwnVIV-69">
          <mxGeometry relative="1" as="geometry" />
        </mxCell>
        <mxCell id="NkOKxSfDtnygiUtwnVIV-63" value="21" style="ellipse;whiteSpace=wrap;html=1;aspect=fixed;fontSize=16;" vertex="1" parent="1">
          <mxGeometry x="560" y="760" width="40" height="40" as="geometry" />
        </mxCell>
        <mxCell id="NkOKxSfDtnygiUtwnVIV-65" value="T" style="text;html=1;align=center;verticalAlign=middle;resizable=0;points=[];autosize=1;strokeColor=none;fillColor=none;fontSize=16;" vertex="1" parent="1">
          <mxGeometry x="550" y="730" width="30" height="30" as="geometry" />
        </mxCell>
        <mxCell id="NkOKxSfDtnygiUtwnVIV-66" value="24" style="ellipse;whiteSpace=wrap;html=1;aspect=fixed;fontSize=16;" vertex="1" parent="1">
          <mxGeometry x="690" y="920" width="40" height="40" as="geometry" />
        </mxCell>
        <mxCell id="NkOKxSfDtnygiUtwnVIV-68" value="F" style="text;html=1;align=center;verticalAlign=middle;resizable=0;points=[];autosize=1;strokeColor=none;fillColor=none;fontSize=16;" vertex="1" parent="1">
          <mxGeometry x="620" y="680" width="30" height="30" as="geometry" />
        </mxCell>
        <mxCell id="NkOKxSfDtnygiUtwnVIV-72" style="edgeStyle=none;curved=1;rounded=0;orthogonalLoop=1;jettySize=auto;html=1;exitX=0.5;exitY=1;exitDx=0;exitDy=0;entryX=0.5;entryY=0;entryDx=0;entryDy=0;fontSize=12;startSize=8;endSize=8;" edge="1" parent="1" source="NkOKxSfDtnygiUtwnVIV-69" target="NkOKxSfDtnygiUtwnVIV-71">
          <mxGeometry relative="1" as="geometry" />
        </mxCell>
        <mxCell id="NkOKxSfDtnygiUtwnVIV-75" style="edgeStyle=none;rounded=0;orthogonalLoop=1;jettySize=auto;html=1;exitX=1;exitY=0.5;exitDx=0;exitDy=0;entryX=0;entryY=0.5;entryDx=0;entryDy=0;fontSize=12;startSize=8;endSize=8;" edge="1" parent="1" source="NkOKxSfDtnygiUtwnVIV-69" target="NkOKxSfDtnygiUtwnVIV-66">
          <mxGeometry relative="1" as="geometry">
            <Array as="points">
              <mxPoint x="650" y="860" />
              <mxPoint x="650" y="940" />
            </Array>
          </mxGeometry>
        </mxCell>
        <mxCell id="NkOKxSfDtnygiUtwnVIV-69" value="22" style="ellipse;whiteSpace=wrap;html=1;aspect=fixed;fontSize=16;" vertex="1" parent="1">
          <mxGeometry x="560" y="840" width="40" height="40" as="geometry" />
        </mxCell>
        <mxCell id="NkOKxSfDtnygiUtwnVIV-71" value="23" style="ellipse;whiteSpace=wrap;html=1;aspect=fixed;fontSize=16;" vertex="1" parent="1">
          <mxGeometry x="560" y="920" width="40" height="40" as="geometry" />
        </mxCell>
        <mxCell id="NkOKxSfDtnygiUtwnVIV-73" value="T" style="text;html=1;align=center;verticalAlign=middle;resizable=0;points=[];autosize=1;strokeColor=none;fillColor=none;fontSize=16;" vertex="1" parent="1">
          <mxGeometry x="550" y="890" width="30" height="30" as="geometry" />
        </mxCell>
        <mxCell id="NkOKxSfDtnygiUtwnVIV-76" value="F" style="text;html=1;align=center;verticalAlign=middle;resizable=0;points=[];autosize=1;strokeColor=none;fillColor=none;fontSize=16;" vertex="1" parent="1">
          <mxGeometry x="620" y="840" width="30" height="30" as="geometry" />
        </mxCell>
      </root>
    </mxGraphModel>
  </diagram>
</mxfile>
